# xmcd CD database file
#
# Track frame offsets:
#	150
#	12632
#	26907
#	39987
#	54542
#	68672
#	82892
#	97457
#	117665
#	132555
#	147090
#	157730
#	169087
#	181440
#
# Disc length: 2597 seconds
#
# Revision: 0
# Processed by: cddbd v1.4PL0 Copyright (c) Steve Scherf et al.
# Submitted via: CDex 1.50Beta7
#
DISCID=c40a230e
DTITLE=DAGMAR - BITTE NOCH EINMAL
DYEAR=1900
DGENRE=Country
TTITLE0=KEINE LUST AUF FRUST
TTITLE1=DAS BRAUCHT KEIN MENSCH
TTITLE2=BITTE NOCH EINMAL
TTITLE3=NICHTS BLEIBT WIE ES MAL WAR
TTITLE4=WIR SITZEN ALLE IM SELBEN BOOT
TTITLE5=SCHENK MIR NOCH EIN LÄCHELN
TTITLE6=OHNE DICH GIBT'S KEINE ZUKUNFT FÜR MICH
TTITLE7=TEIL DEIN HERZ MIT MIR
TTITLE8=EIN MANN WIE DU
TTITLE9=ICH BIN DA FÜR DICH
TTITLE10=COUNTRY ZU JEDER ZEIT
TTITLE11=NEIN HEISST NEIN
TTITLE12=CRYIN' OVER YOU (TRÄNEN IM KAFFEE)
TTITLE13=THE DEVIL IN THE BOTTLE (DER TEUFEL IN DER FLASCHE)
EXTD=
EXTT0=
EXTT1=
EXTT2=
EXTT3=
EXTT4=
EXTT5=
EXTT6=
EXTT7=
EXTT8=
EXTT9=
EXTT10=
EXTT11=
EXTT12=
EXTT13=
PLAYORDER=
